HIERARCHY
ROOT Hips
{
  OFFSET 54.7529 96.6277 60.1207
  CHANNELS 6 Xposition Yposition Zposition Zrotation Xrotation Yrotation
  JOINT spine
  {
    OFFSET 0 8.13249 0.467659
    CHANNELS 3 Zrotation Xrotation Yrotation
    JOINT spine1
    {
      OFFSET 0 10.3498 0
      CHANNELS 3 Zrotation Xrotation Yrotation
      JOINT spine2
      {
        OFFSET 0 9.91699 0
        CHANNELS 3 Zrotation Xrotation Yrotation
        JOINT Neck
        {
          OFFSET 0 25.461 1.2139
          CHANNELS 3 Zrotation Xrotation Yrotation
          JOINT Head
          {
            OFFSET 0 7.69245 0
            CHANNELS 3 Zrotation Xrotation Yrotation
            End Site
            {
              OFFSET 0 18.62 -6.14063
            }
          }
        }
        JOINT RightShoulder
        {
          OFFSET -4.17575 10.7096 -0.581445
          CHANNELS 3 Zrotation Xrotation Yrotation
          JOINT RightArm
          {
            OFFSET 0 14.0466 0
            CHANNELS 3 Zrotation Xrotation Yrotation
            JOINT RightArmRoll
            {
              OFFSET 0 7.09099 0
              CHANNELS 3 Zrotation Xrotation Yrotation
              JOINT RightForeArm
              {
                OFFSET 0 20.6535 0
                CHANNELS 3 Zrotation Xrotation Yrotation
                JOINT RightForeArmRoll
                {
                  OFFSET 0 7.95718 0
                  CHANNELS 3 Zrotation Xrotation Yrotation
                  JOINT RightHand
                  {
                    OFFSET 0 15.9683 0
                    CHANNELS 3 Zrotation Xrotation Yrotation
                    End Site
                    {
                      OFFSET 0 0 0
                    }
                  }
                }
              }
            }
          }
        }
        JOINT LeftShoulder
        {
          OFFSET 4.17575 10.7096 -0.581445
          CHANNELS 3 Zrotation Xrotation Yrotation
          JOINT LeftArm
          {
            OFFSET 0 14.0466 0
            CHANNELS 3 Zrotation Xrotation Yrotation
            JOINT LeftArmRoll
            {
              OFFSET 0 7.09099 0
              CHANNELS 3 Zrotation Xrotation Yrotation
              JOINT LeftForeArm
              {
                OFFSET 0 20.6535 0
                CHANNELS 3 Zrotation Xrotation Yrotation
                JOINT LeftForeArmRoll
                {
                  OFFSET 0 7.95718 0
                  CHANNELS 3 Zrotation Xrotation Yrotation
                  JOINT LeftHand
                  {
                    OFFSET 0 15.9683 0
                    CHANNELS 3 Zrotation Xrotation Yrotation
                    End Site
                    {
                      OFFSET 0 0 0
                    }
                  }
                }
              }
            }
          }
        }
      }
    }
  }
  JOINT RightUpLeg
  {
    OFFSET -7.20834 -1.32182 -1.10884
    CHANNELS 3 Zrotation Xrotation Yrotation
    JOINT RightUpLegRoll
    {
      OFFSET 0 18.7238 0
      CHANNELS 3 Zrotation Xrotation Yrotation
      JOINT RightLeg
      {
        OFFSET 0 -23.1866 0
        CHANNELS 3 Zrotation Xrotation Yrotation
        JOINT RightLegRoll
        {
          OFFSET 0 23.2624 0
          CHANNELS 3 Zrotation Xrotation Yrotation
          JOINT RightFoot
          {
            OFFSET 0 19.3621 0
            CHANNELS 3 Zrotation Xrotation Yrotation
            JOINT RightToeBase
            {
              OFFSET 0 16.1857 0
              CHANNELS 3 Zrotation Xrotation Yrotation
              End Site
              {
                OFFSET 0.00686052 7.83862 -0.903522
              }
            }
          }
        }
      }
    }
  }
  JOINT LeftUpLeg
  {
    OFFSET 7.20834 -1.32182 -1.10884
    CHANNELS 3 Zrotation Xrotation Yrotation
    JOINT LeftUpLegRoll
    {
      OFFSET 0 18.7239 0
      CHANNELS 3 Zrotation Xrotation Yrotation
      JOINT LeftLeg
      {
        OFFSET 0 23.1865 0
        CHANNELS 3 Zrotation Xrotation Yrotation
        JOINT LeftLegRoll
        {
          OFFSET 0 23.4775 0
          CHANNELS 3 Zrotation Xrotation Yrotation
          JOINT LeftFoot
          {
            OFFSET 0 19.147 0
            CHANNELS 3 Zrotation Xrotation Yrotation
            JOINT LeftToeBase
            {
              OFFSET 0 16.1857 0
              CHANNELS 3 Zrotation Xrotation Yrotation
              End Site
              {
                OFFSET -0.0307459 7.83862 -0.903522
              }
            }
          }
        }
      }
    }
  }
}
MOTION
Frames: 11
Frame Time: 0.00208333
52.8528 81.0324 33.5994 0.171963 24.9222 -0.337469 0.737306 2.14188 -0.167323 1.4882 8.28318 -0.461101 1.50007 9.92793 -0.487755 -10.6941 -33.1005 -8.33194 4.40577 1.14792 -6.27612 45.3856 -11.2131 -7.14628 140.294 38.5129 -46.0198 -8.08886e-007 -2.2409e-006 -9.31328e-006 25.3655 35.1059 -8.32074 5.21238e-006 -1.09415e-005 -3.01013 8.02892 -4.95095 0.697473 -58.7198 -7.45892 4.62476 -121.296 36.9039 41.4526 -9.23875e-008 5.03751e-008 3.75197e-006 -14.2583 40.4353 3.37764 1.46601e-005 3.78258e-006 3.0015 -8.02895 -4.95136 -0.697667 157.845 71.8499 21.9025 180 7.01631e-015 179.39 169.603 57.8575 -175.831 -1.27286e-006 4.0938e-006 0.779154 -25.3351 72.7648 24.8697 8.13649 25.2327 -3.48773 -151.549 70.5399 -26.2576 4.47153e-006 -3.51245e-005 -0.509975 -7.82857 -58.0349 -2.78016 -1.1153e-006 2.67091e-006 -0.711498 21.0335 73.3094 -24.8528 -8.13562 25.2346 3.48476 
52.8438 81.1389 33.6907 0.17449 24.8443 -0.34634 0.736674 2.13279 -0.167355 1.48785 8.26498 -0.461284 1.49934 9.90974 -0.487862 -10.6615 -33.1429 -8.31744 4.37704 1.17345 -6.26619 45.4221 -11.2115 -7.14452 140.439 38.6106 -46.0156 -8.08886e-007 -2.2409e-006 -9.31328e-006 25.3398 34.7407 -8.21664 5.21238e-006 -1.09415e-005 -3.01013 8.02892 -4.95095 0.697473 -58.7517 -7.47593 4.63652 -121.38 37.0174 41.4125 -9.23875e-008 5.03751e-008 3.75197e-006 -14.3336 40.0647 3.36211 1.46601e-005 3.78258e-006 3.0015 -8.02895 -4.95136 -0.697667 158.233 71.6101 21.49 180 7.01631e-015 179.39 169.662 57.6716 -175.877 -1.27286e-006 4.0938e-006 0.77521 -25.3224 72.77 24.8742 8.13649 25.2327 -3.48773 -151.925 70.3032 -25.8543 4.47153e-006 -3.51245e-005 -0.509943 -7.80422 -57.8519 -2.7601 -1.1153e-006 2.67091e-006 -0.707414 21.0517 73.3195 -24.867 -8.13562 25.2346 3.48476 
52.835 81.2434 33.7828 0.176706 24.766 -0.354839 0.736007 2.1236 -0.167288 1.48743 8.24662 -0.461243 1.49855 9.89138 -0.487744 -10.626 -33.1847 -8.30183 4.34591 1.2008 -6.25604 45.4604 -11.2093 -7.14226 140.579 38.7064 -46.0091 -8.08886e-007 -2.2409e-006 -9.31328e-006 25.3142 34.3801 -8.11419 5.21238e-006 -1.09415e-005 -3.01013 8.02892 -4.95095 0.697473 -58.7823 -7.49265 4.64805 -121.465 37.1299 41.3702 -9.23875e-008 5.03751e-008 3.75197e-006 -14.4066 39.6945 3.34608 1.46601e-005 3.78258e-006 3.0015 -8.02895 -4.95136 -0.697667 158.61 71.3693 21.0879 180 7.01631e-015 179.39 169.72 57.4854 -175.924 -1.27286e-006 4.0938e-006 0.77127 -25.309 72.7746 24.878 8.13649 25.2327 -3.48773 -152.294 70.066 -25.4591 4.47153e-006 -3.51245e-005 -0.509947 -7.77921 -57.6692 -2.73989 -1.1153e-006 2.67091e-006 -0.703493 21.0707 73.3293 -24.8812 -8.13562 25.2346 3.48476 
52.8279 81.3549 33.8773 0.178529 24.6874 -0.362864 0.735299 2.11436 -0.167118 1.48689 8.22814 -0.460961 1.49765 9.8729 -0.487387 -10.5868 -33.2263 -8.28497 4.31188 1.23064 -6.24568 45.5017 -11.2062 -7.13932 140.713 38.8007 -46 -8.08886e-007 -2.2409e-006 -9.31328e-006 25.2889 34.0244 -8.0136 5.21238e-006 -1.09415e-005 -3.01013 8.02892 -4.95095 0.697473 -58.8113 -7.50896 4.65927 -121.552 37.2412 41.3256 -9.23875e-008 5.03751e-008 3.75197e-006 -14.4769 39.3256 3.3296 1.46601e-005 3.78258e-006 3.0015 -8.02895 -4.95136 -0.697667 158.977 71.1273 20.6958 180 7.01631e-015 179.39 169.777 57.2988 -175.97 -1.27286e-006 4.0938e-006 0.767333 -25.2951 72.7789 24.8813 8.13649 25.2327 -3.48773 -152.655 69.8283 -25.0712 4.47153e-006 -3.51245e-005 -0.509987 -7.75336 -57.4867 -2.71943 -1.1153e-006 2.67091e-006 -0.699737 21.0904 73.339 -24.8953 -8.13562 25.2346 3.48476 
52.8272 81.4567 33.9674 0.17988 24.6082 -0.370316 0.734542 2.10508 -0.166843 1.48621 8.20958 -0.460422 1.49663 9.85434 -0.486775 -10.5432 -33.268 -8.26669 4.27448 1.26366 -6.23514 45.5471 -11.2022 -7.13554 140.84 38.8937 -45.9876 -8.08886e-007 -2.2409e-006 -9.31328e-006 25.2641 33.6741 -7.91505 5.21238e-006 -1.09415e-005 -3.01013 8.02892 -4.95095 0.697473 -58.8381 -7.52474 4.67008 -121.64 37.351 41.2784 -9.23875e-008 5.03751e-008 3.75197e-006 -14.544 38.9587 3.31269 1.46601e-005 3.78258e-006 3.0015 -8.02895 -4.95136 -0.697667 159.335 70.8838 20.3134 180 3.24593e-014 179.39 169.834 57.1117 -176.015 -1.27286e-006 4.0938e-006 0.763399 -25.2809 72.7828 24.884 8.13649 25.2327 -3.48773 -153.009 69.5899 -24.69 4.47153e-006 -3.51245e-005 -0.510065 -7.72649 -57.3044 -2.69863 -1.1153e-006 2.67091e-006 -0.696147 21.1108 73.3485 -24.9094 -8.13562 25.2346 3.48476 
52.8286 81.57 34.0652 0.18068 24.5285 -0.377094 0.733727 2.09578 -0.16646 1.48532 8.19099 -0.45961 1.49545 9.83576 -0.485892 -10.4942 -33.31 -8.24683 4.23321 1.30056 -6.22444 45.5976 -11.197 -7.13078 140.959 38.9854 -45.9717 -8.08886e-007 -2.2409e-006 -9.31328e-006 25.24 33.3296 -7.81873 5.21238e-006 -1.09415e-005 -3.01013 8.02892 -4.95095 0.697473 -58.8622 -7.53989 4.6804 -121.73 37.459 41.2286 -9.23875e-008 5.03751e-008 3.75197e-006 -14.6077 38.5946 3.2954 1.46601e-005 3.78258e-006 3.0015 -8.02895 -4.95136 -0.697667 159.684 70.6389 19.9406 180 7.01631e-015 179.39 169.89 56.9241 -176.06 -1.27286e-006 4.0938e-006 0.759468 -25.2663 72.7864 24.8863 8.13649 25.2327 -3.48773 -153.357 69.3507 -24.3147 4.47153e-006 -3.51245e-005 -0.510182 -7.69844 -57.1221 -2.67738 -1.1153e-006 2.67091e-006 -0.692724 21.1318 73.3577 -24.9236 -8.13562 25.2346 3.48476 
52.8172 81.6735 34.1684 0.18085 24.448 -0.383099 0.732847 2.0865 -0.165967 1.4842 8.17243 -0.458509 1.49408 9.8172 -0.484725 -10.4392 -33.3527 -8.22525 4.18758 1.34203 -6.2136 45.6544 -11.1904 -7.12486 141.067 39.0762 -45.9516 -8.08886e-007 -2.2409e-006 -9.31328e-006 25.2169 32.9913 -7.72482 5.21238e-006 -1.09415e-005 -3.01013 8.02892 -4.95095 0.697473 -58.8831 -7.55429 4.69014 -121.822 37.565 41.1759 -9.23875e-008 5.03751e-008 3.75197e-006 -14.6674 38.234 3.27775 1.46601e-005 3.78258e-006 3.0015 -8.02895 -4.95136 -0.697667 160.025 70.3921 19.577 180 7.01631e-015 179.39 169.945 56.7358 -176.104 -1.27286e-006 4.0938e-006 0.755538 -25.2516 72.7896 24.8881 8.13649 25.2327 -3.48773 -153.698 69.1107 -23.9448 4.47153e-006 -3.51245e-005 -0.510339 -7.66904 -56.94 -2.6556 -1.1153e-006 2.67091e-006 -0.689467 21.1532 73.3668 -24.9376 -8.13562 25.2346 3.48476 
52.8057 81.777 34.2567 0.180313 24.3667 -0.388231 0.731895 2.07724 -0.165361 1.48281 8.15393 -0.457104 1.49248 9.7987 -0.483258 -10.3772 -33.3963 -8.20177 4.13711 1.38874 -6.20264 45.7186 -11.1823 -7.11762 141.164 39.1662 -45.927 -8.08886e-007 -2.2409e-006 -9.31328e-006 25.195 32.6598 -7.63348 5.21238e-006 -1.09415e-005 -3.01013 8.02892 -4.95095 0.697473 -58.9005 -7.56782 4.69921 -121.916 37.6686 41.1202 -9.23875e-008 5.03751e-008 3.75197e-006 -14.7227 37.8777 3.25976 1.46601e-005 3.78258e-006 3.0015 -8.02895 -4.95136 -0.697667 160.356 70.1434 19.2225 180 7.01631e-015 179.39 169.999 56.5469 -176.148 -1.27286e-006 4.0938e-006 0.75161 -25.2368 72.7925 24.8895 8.13649 25.2327 -3.48773 -154.035 68.8698 -23.5797 4.47153e-006 -3.51245e-005 -0.510536 -7.63813 -56.7578 -2.6332 -1.1153e-006 2.67091e-006 -0.686379 21.175 73.3757 -24.9517 -8.13562 25.2346 3.48476 
52.8066 81.8694 34.3498 0.17904 24.2852 -0.392488 0.730814 2.06787 -0.164634 1.4811 8.13519 -0.455373 1.49062 9.77996 -0.481467 -10.3076 -33.4406 -8.17598 4.08099 1.44037 -6.19139 45.7898 -11.1723 -7.10886 141.249 39.2546 -45.8974 -8.08886e-007 -2.2409e-006 -9.31328e-006 25.1734 32.3352 -7.54418 5.21238e-006 -1.09415e-005 -3.01013 8.02892 -4.95095 0.697473 -58.914 -7.58029 4.70748 -122.012 37.7701 41.061 -9.23875e-008 5.03751e-008 3.75197e-006 -14.774 37.5235 3.24109 1.46601e-005 3.78258e-006 3.0015 -8.02895 -4.95136 -0.697667 160.679 69.8936 18.8773 180 7.01631e-015 179.39 170.052 56.3575 -176.19 -1.27286e-006 4.0938e-006 0.747663 -25.2217 72.795 24.8904 8.13649 25.2327 -3.48773 -154.365 68.6288 -23.2202 4.47153e-006 -3.51245e-005 -0.510783 -7.60579 -56.576 -2.61035 -1.1153e-006 2.67091e-006 -0.68353 21.1981 73.3844 -24.966 -8.13562 25.2346 3.48476 
52.8028 81.977 34.4462 0.177106 24.204 -0.395986 0.729573 2.05823 -0.163786 1.47911 8.11594 -0.45332 1.4885 9.76071 -0.479354 -10.2308 -33.4854 -8.14774 4.01923 1.49588 -6.17969 45.8665 -11.1606 -7.09859 141.324 39.3407 -45.8633 -8.08886e-007 -2.2409e-006 -9.31328e-006 25.1511 32.0172 -7.45621 5.21238e-006 -1.09415e-005 -3.01013 8.02892 -4.95095 0.697473 -58.9243 -7.59167 4.71497 -122.111 37.87 40.9982 -9.23875e-008 5.03751e-008 3.75197e-006 -14.8219 37.1689 3.22146 1.46601e-005 3.78258e-006 3.0015 -8.02895 -4.95136 -0.697667 160.993 69.6438 18.5413 180 7.01631e-015 179.39 170.104 56.1678 -176.232 -1.27286e-006 4.0938e-006 0.743683 -25.206 72.7969 24.8904 8.13649 25.2327 -3.48773 -154.688 68.3885 -22.8675 4.47153e-006 -3.51245e-005 -0.511085 -7.57229 -56.3951 -2.58728 -1.1153e-006 2.67091e-006 -0.680972 21.2232 73.3929 -24.9806 -8.13562 25.2346 3.48476 
52.7884 82.0727 34.548 0.174587 24.123 -0.398802 0.7282 2.04837 -0.16282 1.47687 8.09625 -0.450966 1.48616 9.74102 -0.476939 -10.1476 -33.5304 -8.11733 3.95248 1.55488 -6.16758 45.9481 -11.1472 -7.08701 141.39 39.4246 -45.825 -8.08886e-007 -2.2409e-006 -9.31328e-006 25.1283 31.7054 -7.36954 5.21238e-006 -1.09415e-005 -3.01013 8.02892 -4.95095 0.697473 -58.9317 -7.60213 4.72177 -122.212 37.9683 40.932 -9.23875e-008 5.03751e-008 3.75197e-006 -14.8667 36.8143 3.20099 1.46601e-005 3.78258e-006 3.0015 -8.02895 -4.95136 -0.697667 161.298 69.3936 18.2141 180 7.01631e-015 179.39 170.155 55.9778 -176.273 -1.27286e-006 4.0938e-006 0.739678 -25.1895 72.7982 24.8896 8.13649 25.2327 -3.48773 -155.004 68.1487 -22.5211 4.47153e-006 -3.51245e-005 -0.511436 -7.53774 -56.2148 -2.564 -1.1153e-006 2.67091e-006 -0.678675 21.25 73.4013 -24.9956 -8.13562 25.2346 3.48476 
